#N canvas 91 119 866 601 12;
#X obj 202 367 dac~;
#X obj 198 192 hsl 128 15 0 127 0 0 empty empty empty -2 -8 0 10 #fcfcfc
#000000 #000000 0 1;
#X obj 174 25 bng 15 250 50 0 empty empty empty 17 7 0 10 #fcfcfc #000000
#000000;
#X obj 174 103 random 127;
#X obj 203 240 osc~ 10000;
#X floatatom 219 137 5 0 0 0 - - - 0;
#X obj 172 58 metro 2000;
#X connect 1 0 4 0;
#X connect 2 0 6 0;
#X connect 3 0 1 0;
#X connect 3 0 5 0;
#X connect 4 0 0 0;
#X connect 4 0 0 1;
#X connect 6 0 3 0;
